<svg width="800" height="600" viewBox="0 0 800 600" fill="none" xmlns="http://www.w3.org/2000/svg">
  <defs>
    <pattern id="leafPattern" x="0" y="0" width="100" height="100" patternUnits="userSpaceOnUse">
      <path d="M50 20 Q60 30, 70 50 Q75 70, 65 80 Q50 85, 40 75 Q30 65, 35 50 Q40 35, 50 20 Z" 
            fill="#22c55e" 
            opacity="0.05"/>
    </pattern>
    <pattern id="dropPattern" x="0" y="0" width="80" height="80" patternUnits="userSpaceOnUse">
      <path d="M40 15 Q40 5, 50 5 Q60 5, 60 15 Q60 25, 50 30 Q40 25, 40 15 Z" 
            fill="#0ea5e9" 
            opacity="0.03"/>
    </pattern>
    <linearGradient id="backgroundGradient" x1="0%" y1="0%" x2="100%" y2="100%">
      <stop offset="0%" style="stop-color:#f0fdf4;stop-opacity:1" />
      <stop offset="50%" style="stop-color:#ffffff;stop-opacity:1" />
      <stop offset="100%" style="stop-color:#ecfdf5;stop-opacity:1" />
    </linearGradient>
  </defs>
  
  <!-- Base gradient background -->
  <rect width="800" height="600" fill="url(#backgroundGradient)"/>
  
  <!-- Leaf pattern overlay -->
  <rect width="800" height="600" fill="url(#leafPattern)"/>
  
  <!-- Drop pattern overlay -->
  <rect width="800" height="600" fill="url(#dropPattern)"/>
  
  <!-- Subtle flowing lines -->
  <path d="M0 150 Q200 100, 400 150 Q600 200, 800 150" 
        stroke="#22c55e" 
        stroke-width="1" 
        fill="none" 
        opacity="0.1"/>
  <path d="M0 300 Q200 250, 400 300 Q600 350, 800 300" 
        stroke="#16a34a" 
        stroke-width="1" 
        fill="none" 
        opacity="0.08"/>
  <path d="M0 450 Q200 400, 400 450 Q600 500, 800 450" 
        stroke="#15803d" 
        stroke-width="1" 
        fill="none" 
        opacity="0.06"/>
</svg>